<svg width="212" height="124" viewBox="0 0 212 124" fill="none" xmlns="http://www.w3.org/2000/svg">
<line x1="70.3391" y1="17.0928" x2="1.70557" y2="17.0928" stroke="white"/>
<line x1="1.20557" y1="123.928" x2="1.20557" y2="16.5928" stroke="white"/>
<path d="M102.198 25.0928L97.6755 11.9766H97.5789C97.6003 12.2702 97.6254 12.6712 97.6541 13.1797C97.6827 13.6882 97.7078 14.2324 97.7292 14.8125C97.7507 15.3926 97.7615 15.9476 97.7615 16.4775V25.0928H95.4197V9.3877H99.0398L103.39 21.9238H103.455L107.956 9.3877H111.565V25.0928H109.105V16.3486C109.105 15.8688 109.112 15.3496 109.127 14.791C109.148 14.2324 109.17 13.7025 109.191 13.2012C109.22 12.6999 109.241 12.2988 109.256 11.998H109.17L104.475 25.0928H102.198ZM125.433 25.0928L123.897 20.7314H117.892L116.356 25.0928H113.638L119.482 9.32324H122.34L128.173 25.0928H125.433ZM123.231 18.5186L121.738 14.2217C121.681 14.0355 121.598 13.7741 121.491 13.4375C121.384 13.0938 121.276 12.7464 121.169 12.3955C121.061 12.0374 120.972 11.7367 120.9 11.4932C120.829 11.7868 120.739 12.1162 120.632 12.4814C120.531 12.8395 120.431 13.1761 120.331 13.4912C120.238 13.8063 120.166 14.0498 120.116 14.2217L118.612 18.5186H123.231ZM134.693 16.5527L138.421 9.3877H141.203L135.982 18.9912V25.0928H133.415V19.0879L128.183 9.3877H130.987L134.693 16.5527ZM157.209 17.2188C157.209 18.429 157.055 19.5319 156.747 20.5273C156.446 21.5156 155.991 22.3678 155.383 23.084C154.774 23.793 154.011 24.3408 153.094 24.7275C152.178 25.1143 151.104 25.3076 149.872 25.3076C148.619 25.3076 147.53 25.1143 146.606 24.7275C145.69 24.3408 144.927 23.7894 144.318 23.0732C143.717 22.3571 143.265 21.5013 142.965 20.5059C142.664 19.5104 142.513 18.4076 142.513 17.1973C142.513 15.5788 142.778 14.168 143.308 12.9648C143.845 11.7546 144.658 10.8164 145.747 10.1504C146.843 9.47721 148.225 9.14062 149.893 9.14062C151.526 9.14062 152.883 9.47363 153.965 10.1396C155.046 10.8057 155.855 11.7438 156.392 12.9541C156.937 14.1572 157.209 15.5788 157.209 17.2188ZM145.22 17.2188C145.22 18.429 145.385 19.4782 145.715 20.3662C146.044 21.2471 146.549 21.9274 147.229 22.4072C147.917 22.8799 148.798 23.1162 149.872 23.1162C150.953 23.1162 151.834 22.8799 152.514 22.4072C153.195 21.9274 153.696 21.2471 154.018 20.3662C154.341 19.4782 154.502 18.429 154.502 17.2188C154.502 15.3783 154.133 13.9388 153.395 12.9004C152.665 11.8548 151.497 11.332 149.893 11.332C148.819 11.332 147.935 11.5684 147.24 12.041C146.552 12.5137 146.044 13.1904 145.715 14.0713C145.385 14.945 145.22 15.9941 145.22 17.2188ZM176.029 25.0928L174.493 20.7314H168.488L166.952 25.0928H164.234L170.078 9.32324H172.935L178.768 25.0928H176.029ZM173.827 18.5186L172.334 14.2217C172.276 14.0355 172.194 13.7741 172.087 13.4375C171.979 13.0938 171.872 12.7464 171.764 12.3955C171.657 12.0374 171.567 11.7367 171.496 11.4932C171.424 11.7868 171.335 12.1162 171.227 12.4814C171.127 12.8395 171.027 13.1761 170.927 13.4912C170.833 13.8063 170.762 14.0498 170.712 14.2217L169.208 18.5186H173.827ZM180.842 9.3877H185.514C187.541 9.3877 189.07 9.68132 190.101 10.2686C191.133 10.8558 191.648 11.8691 191.648 13.3086C191.648 13.9102 191.541 14.4544 191.326 14.9414C191.118 15.4212 190.814 15.8187 190.413 16.1338C190.012 16.4417 189.518 16.6494 188.93 16.7568V16.8643C189.539 16.9717 190.08 17.1615 190.552 17.4336C191.032 17.7057 191.408 18.096 191.68 18.6045C191.96 19.113 192.099 19.7718 192.099 20.5811C192.099 21.5407 191.87 22.3571 191.412 23.0303C190.961 23.7035 190.313 24.2155 189.468 24.5664C188.63 24.9173 187.634 25.0928 186.481 25.0928H180.842V9.3877ZM183.42 15.8652H185.89C187.058 15.8652 187.867 15.6755 188.318 15.2959C188.769 14.9163 188.995 14.3613 188.995 13.6309C188.995 12.8861 188.726 12.349 188.189 12.0195C187.659 11.6901 186.814 11.5254 185.654 11.5254H183.42V15.8652ZM183.42 17.9492V22.9336H186.137C187.341 22.9336 188.186 22.7008 188.673 22.2354C189.16 21.7699 189.403 21.1396 189.403 20.3447C189.403 19.8577 189.292 19.4352 189.07 19.0771C188.855 18.7191 188.501 18.4434 188.007 18.25C187.512 18.0495 186.846 17.9492 186.009 17.9492H183.42ZM209.287 17.2188C209.287 18.429 209.133 19.5319 208.825 20.5273C208.524 21.5156 208.069 22.3678 207.461 23.084C206.852 23.793 206.089 24.3408 205.173 24.7275C204.256 25.1143 203.182 25.3076 201.95 25.3076C200.697 25.3076 199.608 25.1143 198.684 24.7275C197.768 24.3408 197.005 23.7894 196.396 23.0732C195.795 22.3571 195.344 21.5013 195.043 20.5059C194.742 19.5104 194.592 18.4076 194.592 17.1973C194.592 15.5788 194.857 14.168 195.386 12.9648C195.924 11.7546 196.736 10.8164 197.825 10.1504C198.921 9.47721 200.303 9.14062 201.971 9.14062C203.604 9.14062 204.961 9.47363 206.043 10.1396C207.124 10.8057 207.933 11.7438 208.47 12.9541C209.015 14.1572 209.287 15.5788 209.287 17.2188ZM197.299 17.2188C197.299 18.429 197.463 19.4782 197.793 20.3662C198.122 21.2471 198.627 21.9274 199.307 22.4072C199.995 22.8799 200.876 23.1162 201.95 23.1162C203.031 23.1162 203.912 22.8799 204.593 22.4072C205.273 21.9274 205.774 21.2471 206.096 20.3662C206.419 19.4782 206.58 18.429 206.58 17.2188C206.58 15.3783 206.211 13.9388 205.473 12.9004C204.743 11.8548 203.576 11.332 201.971 11.332C200.897 11.332 200.013 11.5684 199.318 12.041C198.631 12.5137 198.122 13.1904 197.793 14.0713C197.463 14.945 197.299 15.9941 197.299 17.2188Z" fill="white"/>
<rect x="66.8572" y="10.5928" width="12" height="12" fill="#39BC3C"/>
</svg>
