<svg width="70" height="67" viewBox="0 0 70 67" fill="none" xmlns="http://www.w3.org/2000/svg">
<path d="M17.0946 31.2788C16.0695 31.3457 14.9328 31.5462 15.2077 32.8685C16.8718 34.3543 19.249 33.3143 21.1881 33.0171C22.02 30.4542 18.6027 31.2788 17.0946 31.2788Z" fill="white"/>
<path d="M49.3736 31.4873C48.4449 31.9627 48.326 33.1515 49.3736 33.5748C51.1269 33.8273 52.9172 33.6936 54.6852 33.6861C54.663 33.1365 54.611 32.0444 54.5813 31.4946C52.843 31.4206 51.1045 31.2867 49.3736 31.4873Z" fill="white"/>
<path d="M28.8402 40.632C27.7332 41.843 29.9545 44.3317 30.9723 42.6675C31.8341 41.9469 31.1432 40.9887 30.9054 40.1641C30.3853 40.2829 29.3602 40.5132 28.8402 40.632Z" fill="white"/>
<path d="M41.5953 43.0462C43.1184 42.1249 41.5581 39.302 40.1022 40.7282C38.6833 41.5827 40.377 44.3389 41.5953 43.0462Z" fill="white"/>
<path d="M23.1643 44.3026C23.4689 45.6249 24.8059 45.0158 25.7049 44.9117C25.7049 44.3099 25.7049 43.1213 25.7049 42.527C24.4568 41.68 22.0944 42.631 23.1643 44.3026Z" fill="white"/>
<path d="M47.9028 44.8448C47.94 44.2579 47.9994 43.0916 48.0291 42.5046C46.7513 41.5611 45.1171 42.4005 45.1987 43.9904C45.4288 45.3499 46.9444 44.7928 47.9028 44.8448Z" fill="white"/>
<path d="M18.4321 43.3879C16.8571 43.8114 17.1468 46.5824 18.8556 46.3446C20.6459 46.7977 20.3932 42.5037 18.4321 43.3879Z" fill="white"/>
<path d="M53.8829 44.8073C53.4297 44.2501 52.8577 43.6483 52.0851 43.6705C51.1491 44.3093 51.4538 45.5427 51.5427 46.4712C52.6869 46.3301 54.4475 46.5456 53.8829 44.8073Z" fill="white"/>
<path d="M6.22168 24.3853C6.2487 26.7227 6.24869 29.0669 6.24189 31.4111C8.36994 31.7354 10.525 31.6814 12.6733 31.6814C12.8827 34.8768 12.9165 38.079 13.0314 41.2812C11.3425 41.9297 9.68067 42.6392 8.09308 43.5037C9.87663 49.2055 13.2342 54.5424 18.1117 58.1027C23.077 62.3586 29.4341 64.23 35.3521 66.7296C41.4186 64.0477 48.0796 62.3384 53.3086 58.0554C56.3418 55.1977 59.4359 52.2456 61.3208 48.4624C62.1383 46.7195 63.6852 44.9562 63.0975 42.9094C61.4963 42.3823 59.9223 41.7676 58.3484 41.1665C58.2741 37.9777 58.2741 34.7891 58.2471 31.6005C60.0036 31.4722 62.1855 32.2084 63.7056 31.2898C64.0165 28.8645 63.7733 26.4122 63.8475 23.9803C60.5373 23.9262 57.227 24.1492 53.9303 23.8587C54.0182 21.9875 53.998 20.1095 53.8222 18.2516C52.0793 18.2112 50.3295 18.3057 48.6 18.1097C47.8434 16.1372 47.2759 14.0698 46.0666 12.2998C45.0127 12.2592 43.9588 12.2188 42.9117 12.1849C42.8644 8.30054 43.1211 4.40916 42.8238 0.531559C39.4527 0.112784 36.0479 0.437067 32.6565 0.30875C31.0487 0.30195 29.3531 -0.00872818 27.8533 0.741129C27.9412 4.61211 27.7993 8.4965 27.9614 12.3743C26.7792 12.3609 25.597 12.3472 24.4215 12.327C22.8948 13.9348 22.4084 16.144 21.726 18.1774C19.9358 18.1233 18.1523 18.1571 16.3687 18.3193C16.3417 20.1703 16.3957 22.0281 16.2944 23.8791C12.9571 24.392 9.54557 23.7503 6.22168 24.3853ZM34.5414 63.8449C24.7592 61.2779 14.6596 55.4205 11.0183 45.4628C10.2886 44.4157 11.829 44.0846 12.4707 43.7401C19.7669 40.7609 27.1642 38.0452 34.4942 35.1402C34.6561 44.7062 34.5076 54.2722 34.5414 63.8449ZM15.0514 40.5786C15.0784 37.5655 15.0311 34.5525 14.9905 31.5395C28.7045 31.6205 42.4251 31.6408 56.1391 31.4584C56.2335 34.4444 56.1999 37.4304 56.2606 40.4232C49.2753 37.9102 42.2561 35.2958 35.3587 32.6679C28.5221 35.12 21.8273 37.9641 15.0514 40.5786ZM61.0233 44.3347C58.8614 49.3474 55.612 53.9345 51.0722 57.0556C46.7148 60.1835 41.7157 62.2912 36.6016 63.8449C36.7299 54.3262 36.6759 44.8009 36.5746 35.2822C44.7221 38.3086 52.8085 41.504 61.0233 44.3347ZM36.3247 2.23368C37.8717 2.2539 39.4257 2.28773 40.9794 2.38903C40.9862 3.32125 41.0064 4.26026 41.0267 5.20608C39.4391 5.19266 37.8515 5.16563 36.2639 5.13843C36.2843 4.16576 36.3045 3.19954 36.3247 2.23368ZM40.7564 7.08413C40.8443 8.83386 40.8781 10.5904 40.8781 12.3535C37.2908 12.2657 33.7037 12.3063 30.1163 12.232C30.0825 10.5093 30.0287 8.7866 29.9744 7.0639C33.5686 7.09092 37.1625 7.04351 40.7564 7.08413ZM29.988 2.30114C31.3526 2.28772 32.724 2.28092 34.0886 2.26732C34.0482 3.20634 34.0007 4.14537 33.9603 5.0912C32.6091 5.11142 31.2581 5.14523 29.9137 5.16545C29.934 4.20621 29.961 3.25358 29.988 2.30114ZM25.4821 14.3937C31.9539 14.4343 38.4258 14.1505 44.8978 14.3937C45.6613 15.5827 46.1341 16.9067 46.4111 18.2917C38.8448 18.1702 31.2717 18.2985 23.7055 18.0755C24.2322 16.819 24.8199 15.5827 25.4821 14.3937ZM18.49 20.1766C24.0905 20.3995 29.7044 20.1293 35.3115 20.244C40.8915 20.4198 46.4784 19.8861 52.0385 20.467C52.0587 21.5884 52.1127 22.7234 52.0723 23.8584C40.8107 24.0273 29.5356 23.8988 18.2672 23.9056C18.3076 22.6559 18.3887 21.4128 18.49 20.1766ZM61.8138 26.0135C61.7734 27.2227 61.7395 28.4319 61.7057 29.6548C53.8084 29.9587 45.9111 29.3642 38.0136 29.5872C28.1504 29.9183 18.2804 29.5872 8.41719 29.675C8.37657 28.4253 8.34972 27.1823 8.33612 25.9392C26.1643 26.0269 43.9924 25.8513 61.8138 26.0135Z" fill="white"/>
<path d="M61.7192 53.415C60.3951 54.577 59.929 56.5226 58.3685 57.4886C56.9835 58.7249 55.0312 58.2115 53.3557 58.3602C53.7611 59.0762 53.8015 60.4949 54.9095 60.4814C57.8076 60.9272 60.2059 58.9749 61.9286 56.9009C63.5162 59.6707 66.7048 61.0962 69.8395 60.3665C69.8463 59.8531 69.8733 58.8264 69.8801 58.3129C68.6979 58.2993 67.5157 58.2993 66.3402 58.3061C65.2795 57.4616 64.0702 56.6983 63.4219 55.4688C62.834 54.8135 62.7259 53.5299 61.7192 53.415Z" fill="white"/>
<path d="M1.24952 58.2855C1.2089 59.0151 1.28335 59.7311 1.41166 60.4608C4.55301 60.981 7.43092 59.4813 9.26851 56.9815C10.2075 58.6638 11.6262 60.4135 13.7204 60.508C14.8959 60.7917 17.4697 60.6363 16.6321 58.7785C15.0986 58.3191 13.234 58.5825 11.9911 57.4071C10.6129 56.3464 10.2684 54.4683 8.85654 53.4482C7.72835 54.9413 7.02575 56.8666 5.33007 57.8395C4.11402 58.6232 2.5939 58.1842 1.24952 58.2855Z" fill="white"/>
<path d="M8.90383 63.0343C10.4576 63.9733 11.8358 65.4124 13.7949 65.3852C15.0244 65.635 17.7401 65.1555 16.6322 63.345C14.619 63.3112 12.2005 63.6963 10.8089 61.8587C10.059 61.4061 9.46451 59.7577 8.50527 60.332C7.12707 61.6223 5.75569 63.3922 3.62764 63.1356C2.5399 62.8586 -0.439327 63.4531 1.33742 65.0339C4.11404 65.8718 6.6947 64.6017 8.90383 63.0343Z" fill="white"/>
<path d="M66.813 63.0474C64.5971 62.9664 63.2799 60.8924 61.9624 59.4062C60.895 60.5276 59.9222 61.7843 58.6319 62.6693C57.0713 63.5881 55.2203 63.0949 53.5382 62.9463C53.5652 63.453 53.6193 64.4663 53.6463 64.9797C56.7336 65.939 59.8615 64.7839 62.0909 62.5882C63.9081 64.9054 66.9347 65.9796 69.7922 65.0472C70.7583 62.7434 68.2249 63.2164 66.813 63.0474Z" fill="white"/>
</svg>
